<?xml version="1.0" encoding="utf-8"?>
<!-- Generator: Adobe Illustrator 24.2.0, SVG Export Plug-In . SVG Version: 6.00 Build 0)  -->
<svg version="1.1" id="Capa_1" xmlns="http://www.w3.org/2000/svg" xmlns:xlink="http://www.w3.org/1999/xlink" x="0px" y="0px"
	 viewBox="0 0 351.6 351.6" style="enable-background:new 0 0 351.6 351.6;" xml:space="preserve">
<style type="text/css">
	.st0{fill:#FFFFFF;}
</style>
<g>
	<path class="st0" d="M196.9,305.9c-7.4,6.8-15.7,14-21,15.6c-6.3-1.9-16.5-11.4-31.5-25.3c-2.5-2.4-5.2-4.9-8.1-7.5
		C80.5,237.2,20.7,162,20,105.1c-0.2-19.5,6.3-35.4,19.9-48.6C57.7,39.4,80.8,30,105.1,30c23.9,0,46.5,9,63.9,25.4
		c3.9,3.6,9.9,3.6,13.7,0C200.1,39,222.8,30,246.6,30c24.3,0,47.4,9.4,65.2,26.6c28.1,27.2,26.5,68.2-4.6,122
		c-2.8,4.8-1.1,10.9,3.6,13.7c4.8,2.8,10.9,1.1,13.7-3.6c45.3-78.2,25.7-122.8,1.2-146.4C304.2,21.4,276.1,10,246.6,10
		c-25.9,0-50.7,8.8-70.8,24.9C155.8,18.7,131,10,105.1,10C75.6,10,47.5,21.4,26,42.2C8.5,59.2-0.3,80.4,0,105.4
		C1,185,94.1,277,122.6,303.3c2.9,2.6,5.5,5.1,8.1,7.5c20.9,19.4,31.4,29.1,43.8,30.8c0.4,0.1,0.9,0.1,1.3,0.1s0.9,0,1.3-0.1
		c10-1.3,19-8.1,33.2-20.9c4.1-3.7,4.4-10,0.7-14.1C207.3,302.4,201,302.1,196.9,305.9z"/>
	<path class="st0" d="M317.5,208.6h-32.1v-32.1c0-5.5-4.5-10-10-10h-40.2c-5.5,0-10,4.5-10,10v32.1h-32.1c-5.5,0-10,4.5-10,10v40.2
		c0,5.5,4.5,10,10,10h32.1v32.1c0,5.5,4.5,10,10,10h40.2c5.5,0,10-4.5,10-10v-32.1h32.1c5.5,0,10-4.5,10-10v-40.2
		C327.5,213.1,323.1,208.6,317.5,208.6z M307.5,248.8h-32.1c-5.5,0-10,4.5-10,10v32.1h-20.2v-32.1c0-5.5-4.5-10-10-10h-32.1v-20.2
		h32.1c5.5,0,10-4.5,10-10v-32.1h20.2v32.1c0,5.5,4.5,10,10,10h32.1V248.8z"/>
</g>
</svg>
