<?xml version="1.0" encoding="utf-8"?>
<!-- Generator: Adobe Illustrator 24.2.0, SVG Export Plug-In . SVG Version: 6.00 Build 0)  -->
<svg version="1.1" id="Capa_1" xmlns="http://www.w3.org/2000/svg" xmlns:xlink="http://www.w3.org/1999/xlink" x="0px" y="0px"
	 viewBox="0 0 57 57" style="enable-background:new 0 0 57 57;" xml:space="preserve">
<style type="text/css">
	.st0{fill:#FFFFFF;}
</style>
<path class="st0" d="M57,0h-8.8l-30,30l-4.1-4.1l-1.3-4c-0.2-0.7-0.9-1.1-1.6-1c-0.7,0.1-1.2,0.6-1.3,1.3l-0.6,7.4l6,6L5,46H2.3
	C1,46,0,47,0,48.3v6.5C0,56,1,57,2.3,57h6.5c1.3,0,2.3-1,2.3-2.3v-3.4l10-10l6,6l6.9-1.1c0.7-0.1,1.2-0.7,1.2-1.4s-0.4-1.3-1.1-1.5
	l-3.3-0.8l-4-4L57,8.5V0z M9,54.7C9,54.9,8.9,55,8.7,55H2.3C2.1,55,2,54.9,2,54.7v-6.5C2,48.1,2.1,48,2.3,48H3h5.7
	C8.9,48,9,48.1,9,48.3v5V54.7z M11,48.5v-0.2C11,47,10,46,8.7,46H7.8l8.9-8.9l1.4,1.4l1.4,1.4L11,48.5z M30.9,44.6l-3.2,0.5
	l-5.3-5.3l0,0l-2.8-2.8l-8.2-8.2l0.3-3.8l0.6,1.9l4.4,4.4l0,0l4.2,4.2l8.7,8.7L30.9,44.6z M25.2,37.1l-2.8-2.8l-2.8-2.8L49,2h4.2
	L23.8,31.4c-0.4,0.4-0.4,1,0,1.4c0.2,0.2,0.5,0.3,0.7,0.3s0.5-0.1,0.7-0.3L55,3.1v4.6L25.2,37.1z"/>
</svg>
